<svg width="22" height="21" viewBox="0 0 22 21" fill="none" xmlns="http://www.w3.org/2000/svg">
<mask id="mask0_1104_4924" style="mask-type:alpha" maskUnits="userSpaceOnUse" x="0" y="0" width="22" height="21">
<rect width="22" height="21" fill="#D9D9D9"/>
</mask>
<g mask="url(#mask0_1104_4924)">
<path d="M5.02152 15.6571H6.0059L15.5971 6.48743L14.6125 5.54608L5.02152 14.716V15.6571ZM4.84916 16.5143C4.64401 16.5143 4.47203 16.4479 4.33322 16.3152C4.19441 16.1825 4.125 16.0181 4.125 15.8219V14.9303C4.125 14.7407 4.16407 14.5601 4.24222 14.3884C4.32037 14.2166 4.42436 14.0687 4.55421 13.9446L15.9418 3.04557C16.0337 2.96729 16.1351 2.90679 16.246 2.86407C16.357 2.82136 16.4727 2.8 16.5931 2.8C16.7136 2.8 16.8303 2.81815 16.9432 2.85443C17.056 2.89072 17.1602 2.95607 17.2557 3.0505L18.2125 3.97043C18.3112 4.06157 18.3788 4.16157 18.4151 4.27043C18.4512 4.37943 18.4693 4.48836 18.4693 4.59722C18.4693 4.71336 18.4489 4.8245 18.4079 4.93065C18.367 5.03665 18.3018 5.13357 18.2125 5.22143L6.81277 16.1039C6.68292 16.2281 6.5282 16.3275 6.34859 16.4022C6.16899 16.4769 5.98005 16.5143 5.78177 16.5143H4.84916ZM15.0962 6.025L14.6125 5.54608L15.5971 6.48743L15.0962 6.025Z" fill="white"/>
</g>
</svg>
