<svg width="24" height="24" viewBox="0 0 24 24" fill="none" xmlns="http://www.w3.org/2000/svg">
<path d="M8.82031 15.1811L15.1843 8.81714" stroke="#0A65CC" stroke-width="1.5" stroke-linecap="round" stroke-linejoin="round"/>
<path d="M13.5909 16.7728L10.9392 19.4245C10.0953 20.2682 8.95077 20.7421 7.75743 20.742C6.56409 20.7419 5.41965 20.2678 4.57583 19.4239C3.73201 18.5801 3.25791 17.4357 3.25781 16.2423C3.25771 15.049 3.73161 13.9045 4.57529 13.0605L7.22694 10.4089" stroke="#0A65CC" stroke-width="1.5" stroke-linecap="round" stroke-linejoin="round"/>
<path d="M16.7702 13.5904L19.4219 10.9388C20.2655 10.0948 20.7394 8.95028 20.7393 7.75694C20.7392 6.5636 20.2651 5.41916 19.4213 4.57534C18.5775 3.73152 17.4331 3.25743 16.2397 3.25732C15.0464 3.25722 13.9019 3.73112 13.0579 4.5748L10.4062 7.22645" stroke="#0A65CC" stroke-width="1.5" stroke-linecap="round" stroke-linejoin="round"/>
</svg>
