<svg width="48" height="48" viewBox="0 0 48 48" fill="none" xmlns="http://www.w3.org/2000/svg">
<path d="M32 32L24 24L16 32" stroke="#ADB2BA" stroke-width="3" stroke-linecap="round" stroke-linejoin="round"/>
<path d="M24 24V42" stroke="#ADB2BA" stroke-width="3" stroke-linecap="round" stroke-linejoin="round"/>
<path d="M40.7828 36.779C42.7335 35.7155 44.2745 34.0328 45.1626 31.9962C46.0507 29.9597 46.2353 27.6855 45.6873 25.5324C45.1392 23.3793 43.8898 21.47 42.1362 20.1059C40.3826 18.7418 38.2246 18.0005 36.0028 17.999H33.4829C32.8775 15.6575 31.7492 13.4837 30.1827 11.641C28.6163 9.79829 26.6525 8.33469 24.439 7.36021C22.2256 6.38572 19.82 5.92571 17.4031 6.01476C14.9862 6.1038 12.621 6.73959 10.4852 7.87432C8.34942 9.00905 6.49867 10.6132 5.07209 12.5662C3.64552 14.5191 2.68023 16.7701 2.24881 19.1498C1.81739 21.5295 1.93106 23.9761 2.58128 26.3055C3.23149 28.635 4.40133 30.7867 6.00285 32.599" stroke="#ADB2BA" stroke-width="3" stroke-linecap="round" stroke-linejoin="round"/>
<path d="M32 32L24 24L16 32" stroke="#ADB2BA" stroke-width="3" stroke-linecap="round" stroke-linejoin="round"/>
</svg>
